# xmcd
#
# Track frame offsets:
# 150
# 15310
# 29081
# 45031
# 60766
# 76149
# 90719
# 106138
# 120711
# 138344
# 155396
# 170872
# 185672
# 201016
# 215785
#
# Disc length: 3102 seconds
#
#
# Revision: 0
# Processed by: cddbd v1.5.2PL0 Copyright (c) Steve Scherf et al.
# Submitted via: FreeRIP 2.95 
#
DISCID=bf0c1c0f
DTITLE=Noda De Caju - Eu Me Rendo
DYEAR=2007
DGENRE=Forro
TTITLE0=Conectados Ao Amor
TTITLE1=Eu Me Renda
TTITLE2=Ninguem E De Nin
TTITLE3=Amor Soberano
TTITLE4=Nao Va Amor
TTITLE5=Melo De Amor
TTITLE6=Vamos Fazer Amor
TTITLE7=Seducao
TTITLE8=Na Alegria E Na Tristeza ( Acustica)
TTITLE9=/voce Me Usou
TTITLE10=Tome Couro
TTITLE11=O Teu Amor
TTITLE12=Doido Pra Te Dar Amor
TTITLE13=Perdeu O Encanto
TTITLE14=Fique Em Silencio
EXTD=
EXTT0=
EXTT1=
EXTT2=
EXTT3=
EXTT4=
EXTT5=
EXTT6=
EXTT7=
EXTT8=
EXTT9=
EXTT10=
EXTT11=
EXTT12=
EXTT13=
EXTT14=
PLAYORDER=
